<svg width="27" height="27" viewBox="0 0 27 27" fill="none" xmlns="http://www.w3.org/2000/svg">
<path d="M16.6366 18.962L16.6416 21.3058" stroke="black" stroke-width="2" stroke-linecap="round" stroke-linejoin="round"/>
<path d="M10.3584 5.6941L10.3634 8.03784" stroke="black" stroke-width="2" stroke-linecap="round" stroke-linejoin="round"/>
<path d="M18.9754 16.6134L21.3191 16.6084" stroke="black" stroke-width="2" stroke-linecap="round" stroke-linejoin="round"/>
<path d="M5.68089 10.3916L8.02464 10.3866" stroke="black" stroke-width="2" stroke-linecap="round" stroke-linejoin="round"/>
<path d="M19.0663 13.449L20.1675 12.3431C20.8989 11.6086 21.3086 10.6136 21.3064 9.57703C21.3053 9.06377 21.2031 8.55575 21.0057 8.08198C20.8083 7.60821 20.5195 7.17796 20.1558 6.8158C19.7921 6.45364 19.3606 6.16666 18.886 5.97125C18.4114 5.77584 17.9029 5.67582 17.3897 5.67691C16.3531 5.67911 15.3598 6.093 14.6284 6.82752L13.5273 7.93338" stroke="black" stroke-width="2" stroke-linecap="round" stroke-linejoin="round"/>
<path d="M7.93369 13.5508L6.83252 14.6567C6.1011 15.3912 5.69144 16.3862 5.69363 17.4228C5.69583 18.4594 6.10972 19.4526 6.84425 20.184C7.57877 20.9154 8.57376 21.3251 9.61034 21.3229C10.6469 21.3207 11.6402 20.9068 12.3716 20.1723L13.4728 19.0664" stroke="black" stroke-width="2" stroke-linecap="round" stroke-linejoin="round"/>
</svg>


